<svg xmlns="http://www.w3.org/2000/svg" viewBox="77.35 0 30.01 30.75" width="30" height="31" fill="none">
  <path d="M101.198 14.3954C102.584 13.7998 103.771 12.8235 104.627 11.5825C105.372 10.4822 105.765 9.18743 105.765 7.85957C105.749 6.42003 105.298 5.01772 104.474 3.83878C103.622 2.52747 102.385 1.514 100.929 0.943149C99.4153 0.314383 97.4174 0 94.9354 0H82.6786V25.6057H87.0138V16.5547L94.5341 16.5796C96.6107 16.5796 98.1992 16.7533 99.3037 17.1049C101.438 17.6882 102.903 19.6531 102.849 21.8662C102.865 22.7762 102.642 23.6739 102.199 24.4681C101.806 25.1672 101.235 25.7504 100.545 26.1558C99.7752 26.5819 98.9355 26.8591 98.0627 26.9832C97.5332 27.0618 96.9996 27.1031 96.4659 27.1114H81.4376V0H77.3548V30.7475H96.0068C96.0068 30.7475 96.8713 30.7516 97.9179 30.6813C98.7576 30.6192 99.5891 30.4827 100.4 30.2676C101.682 29.9905 102.898 29.4693 103.986 28.7412C105 27.9884 105.819 27.0038 106.373 25.8704C107.027 24.6294 107.362 23.2437 107.354 21.8413C107.387 20.1495 106.816 18.499 105.749 17.1835C104.57 15.7936 102.973 14.8132 101.198 14.3954ZM98.2157 12.567C96.8589 12.8607 95.469 12.9807 94.0791 12.9269H87.0138V3.63195H93.5538C95.8992 3.63195 97.5539 3.77673 98.5177 4.07043C99.4278 4.31449 100.222 4.88121 100.747 5.66303C101.273 6.4614 101.546 7.39627 101.525 8.35183C101.566 9.31566 101.277 10.2629 100.698 11.0365C100.061 11.8059 99.1878 12.3437 98.2157 12.567Z" fill="#FFFFFF"/>
</svg>
